<?xml version="1.0" encoding="UTF-8" standalone="no" ?>
<!DOCTYPE svg PUBLIC "-//W3C//DTD SVG 1.1//EN" "http://www.w3.org/Graphics/SVG/1.1/DTD/svg11.dtd">
<svg xmlns="http://www.w3.org/2000/svg" xmlns:xlink="http://www.w3.org/1999/xlink" version="1.1" width="652.35" height="584.47" viewBox="-239.875 -214.91500000000002 652.35 584.47" xml:space="preserve">
<desc>Created with Fabric.js 4.6.0</desc>
<defs>
</defs>
<g transform="matrix(1 0 0 1 86.3 77.32)" id="17JEpcT_5HiJhNGn_U-3g"  >
<g style="" vector-effect="non-scaling-stroke"   >
		<g transform="matrix(3.78 0 0 3.78 -18.91 -19.1)" id="wV-aiLsaWaHp7G5nc7KTX"  >
<path style="stroke: rgb(0,0,10); stroke-width: 3; stroke-dasharray: none; stroke-linecap: butt; stroke-dashoffset: 0; stroke-linejoin: miter; stroke-miterlimit: 4; fill: rgb(205,189,142); fill-rule: nonzero; opacity: 1;" vector-effect="non-scaling-stroke"  transform=" translate(-84.52, -74.56)" d="M 113.3 119.56 C 74.21 113.0648 68.32300000000001 117.709 37.03399999999999 135.327 C 25.410999999999994 124.126 17.09399999999999 107.773 15.20999999999999 91.74199999999999 C 10.71229999999999 53.46399999999999 38.109999999999985 18.769999999999996 76.38799999999999 14.272999999999996 C 78.78039999999999 13.991899999999996 81.15889999999999 13.835139999999996 83.51679999999999 13.798089999999997 C 118.88479999999998 13.242299999999997 149.64079999999998 39.56509 153.8568 75.45109 C 155.7792 91.81209 151.6179 109.55108999999999 142.5378 123.29608999999999" stroke-linecap="round" />
</g>
		<g transform="matrix(3.78 0 0 3.78 -12.54 -20.65)" id="9MG7LZ2pe-GJvn6sNwrx5"  >
<path style="stroke: none; stroke-width: 1; stroke-dasharray: none; stroke-linecap: butt; stroke-dashoffset: 0; stroke-linejoin: miter; stroke-miterlimit: 4; fill: rgb(0,0,0); fill-rule: nonzero; opacity: 1;" vector-effect="non-scaling-stroke"  transform=" translate(-86.21, -74.15)" d="M 104.92 107.31 C 104.92 107.31 105.05363 110.1163 106.9913 112.38810000000001 C 108.929 114.65990000000001 81.0663 119.73800000000001 81.0663 119.73800000000001 C 81.0663 119.73800000000001 65.29729999999999 113.45720000000001 64.22829999999999 110.71770000000001 C 63.15919999999999 107.9782 65.2974 102.09830000000001 65.3642 102.36550000000001 C 65.3642 102.36550000000001 63.4265 104.77090000000001 62.5579 111.31900000000002 C 62.5579 111.31900000000002 60.2193 106.97590000000002 61.5556 96.41900000000001 C 61.5556 96.41900000000001 60.0188 99.69310000000002 60.5533 111.38600000000001 C 60.5533 111.38600000000001 56.9452 107.9115 55.4752 89.33600000000001 C 55.4752 89.33600000000001 55.0743 92.87730000000002 54.473 97.88860000000001 C 54.473 97.88860000000001 44.384 74.76960000000001 53.2035 52.58660000000001 C 53.2035 52.58660000000001 54.473 23.253600000000013 79.2625 29.40060000000001 C 79.2625 29.40060000000001 110.5335 19.979400000000012 115.94550000000001 67.62060000000001 C 115.94550000000001 67.62060000000001 120.48910000000001 76.30690000000001 120.89000000000001 85.32760000000002 C 121.29090000000001 94.34800000000001 119.82090000000001 99.69360000000002 122.82770000000002 104.90460000000002 C 122.82770000000002 104.90460000000002 118.35090000000002 100.42780000000002 117.01460000000002 95.41650000000001 C 117.01460000000002 95.41650000000001 116.21279000000001 99.09150000000001 117.88323000000001 103.03370000000001 C 117.88323000000001 103.03370000000001 117.48232000000002 103.36777000000001 111.93643000000002 93.81290000000001 C 111.93643000000002 93.81290000000001 111.53553000000002 108.2459 115.01003000000001 115.19490000000002 C 115.01003000000001 115.19490000000002 106.79153000000001 110.65130000000002 104.92103000000002 107.31050000000002" stroke-linecap="round" />
</g>
		<g transform="matrix(3.78 0 0 3.78 -32.02 16.35)" id="nd4PY9GZcgjEfg8kHvYhp"  >
<path style="stroke: none; stroke-width: 1; stroke-dasharray: none; stroke-linecap: butt; stroke-dashoffset: 0; stroke-linejoin: miter; stroke-miterlimit: 4; fill: rgb(177,150,78); fill-rule: nonzero; opacity: 1;" vector-effect="non-scaling-stroke"  transform=" translate(-81.05, -83.94)" d="M 61.218 67.217 C 61.218 67.21682 55.8355 48.619 74.581 38.552 C 74.4988 40.7716 93.494 38.78944 100.305 57.595 C 101.8692 61.914 103.62370000000001 63.5019 103.84710000000001 67.752 C 103.84710000000001 67.752 107.12110000000001 61.7384 106.6534 71.8278 C 106.6534 71.8278 106.45294 76.5718 101.7757 77.7077 C 101.7757 77.7077 99.5707 85.85940000000001 91.1517 92.0067 C 91.1517 92.0067 91.41897 110.9827 105.7847 112.5197 C 109.1643 113.01528 108.2799 115.057 117.6097 120.1625 C 109.787 116.6185 77.53970000000001 114.62859999999999 44.496700000000004 129.31969999999998 L 50.592800000000004 116.16169999999998 C 55.577400000000004 112.36289999999998 67.22380000000001 111.23239999999998 69.6678 106.50599999999999 C 71.3962 103.16359999999999 72.4394 98.34809999999999 73.1098 91.27199999999999 C 73.1098 91.27199999999999 66.16080000000001 85.1916 63.75540000000001 77.44099999999999 C 63.75540000000001 77.44099999999999 59.14500000000001 77.57463999999999 58.47680000000001 70.82609999999998 C 58.47680000000001 70.82609999999998 58.276350000000015 64.01069999999999 61.21630000000001 67.21799999999999" stroke-linecap="round" />
</g>
		<g transform="matrix(3.78 0 0 3.78 -23.28 -11.12)" id="_OtWZ6gdr-op3SQLb_Tx0"  >
<path style="stroke: none; stroke-width: 1; stroke-dasharray: none; stroke-linecap: butt; stroke-dashoffset: 0; stroke-linejoin: miter; stroke-miterlimit: 4; fill: rgb(0,0,0); fill-rule: nonzero; opacity: 1;" vector-effect="non-scaling-stroke"  transform=" translate(-83.37, -76.67)" d="M 82.313 77.261 C 82.313 77.261 83.672 75.5167 84.2711 76.26155999999999 C 84.2711 76.26155999999999 84.75203 77.00393999999999 83.99333 77.13011999999999 z" stroke-linecap="round" />
</g>
		<g transform="matrix(3.78 0 0 3.78 -36.86 -11.21)" id="hNgBZT9dhSb7gw31CyUL-"  >
<path style="stroke: none; stroke-width: 1; stroke-dasharray: none; stroke-linecap: butt; stroke-dashoffset: 0; stroke-linejoin: miter; stroke-miterlimit: 4; fill: rgb(0,0,0); fill-rule: nonzero; opacity: 1;" vector-effect="non-scaling-stroke"  transform=" translate(-79.77, -76.64)" d="M 79.238 77.107 C 79.238 77.107 78.33121 76.36405 79.2915 76.0539 C 79.57427 75.9582 80.24914 76.5147 80.6951 77.2439 z" stroke-linecap="round" />
</g>
		<g transform="matrix(3.78 0 0 3.78 -28.2 19.69)" id="sl0fDQLqwKyyTC32Uc5lb"  >
<path style="stroke: none; stroke-width: 1; stroke-dasharray: none; stroke-linecap: butt; stroke-dashoffset: 0; stroke-linejoin: miter; stroke-miterlimit: 4; fill: rgb(0,0,0); fill-rule: nonzero; opacity: 1;" vector-effect="non-scaling-stroke"  transform=" translate(-82.07, -84.82)" d="M 75.918 84.522 C 75.915 84.5241 78.67970000000001 81.4835 82.0318 83.0186 C 82.0318 83.0186 85.33930000000001 81.78250000000001 88.2124 84.3884 C 88.2124 84.3884 82.5997 90.30170000000001 75.9184 84.52203 z" stroke-linecap="round" />
</g>
		<g transform="matrix(3.78 0 0 3.78 -41.49 169.47)" id="zp6rVg-DtCnsfd2zC4v-M"  >
<path style="stroke: none; stroke-width: 1; stroke-dasharray: none; stroke-linecap: butt; stroke-dashoffset: 0; stroke-linejoin: miter; stroke-miterlimit: 4; fill: rgb(0,0,0); fill-rule: nonzero; opacity: 1;" vector-effect="non-scaling-stroke"  transform=" translate(-78.55, -124.45)" d="M 36.601 136.53 C 36.601 136.53 38.9228 126.443 44.3805 121.005 C 50.0256 115.3805 60.1015 111.39009999999999 60.4325 112.11829999999999 C 59.85131 111.98312999999999 80.8385 126.24229999999999 106.6035 112.26339999999999 C 106.6035 112.26339999999999 117.8835 114.71839999999999 120.9025 120.73459999999999 C 59.6015 125.45109999999998 32.480500000000006 139.1746 36.6005 136.5296 z" stroke-linecap="round" />
</g>
		<g transform="matrix(3.78 0 0 3.78 -26.75 56.35)" id="dgSwA3D0gGNdeCVCJwPve"  >
<path style="stroke: none; stroke-width: 1; stroke-dasharray: none; stroke-linecap: butt; stroke-dashoffset: 0; stroke-linejoin: miter; stroke-miterlimit: 4; fill: rgb(0,0,0); fill-rule: nonzero; opacity: 0.98;" vector-effect="non-scaling-stroke"  transform=" translate(-82.45, -94.52)" d="M 91.151 92.034 C 91.151 92.034 85.8407 96.71700000000001 81.7648 95.982 C 81.7648 95.982 77.192 95.15952 73.1454 91.2714 C 73.1454 91.2714 76.8521 100.6287 91.7524 96.8869 C 91.42642 94.9536 91.32397999999999 92.1199 91.15104 92.03399999999999 z" stroke-linecap="round" />
</g>
		<g transform="matrix(3.78 0 0 3.78 -31.12 -82.51)" id="TBQzq9dpt1T0pIozIOAex"  >
<path style="stroke: none; stroke-width: 1; stroke-dasharray: none; stroke-linecap: butt; stroke-dashoffset: 0; stroke-linejoin: miter; stroke-miterlimit: 4; fill: rgb(0,0,0); fill-rule: nonzero; opacity: 1;" vector-effect="non-scaling-stroke"  transform=" translate(-81.29, -57.78)" d="M 100.27 59.278 C 100.2325 59.2148 93.65599999999999 54.6239 87.692 59.846689999999995 C 87.692 59.846689999999995 85.654 60.381919999999994 86.86407 58.140589999999996 C 86.92857 57.76775 93.87297 52.160489999999996 100.27007 59.277989999999996 M 76.77007 59.04382 C 76.77007 59.04382 77.05667000000001 61.051019999999994 73.58577000000001 58.675839999999994 C 73.58577000000001 58.675839999999994 68.36347 55.230239999999995 62.312770000000015 59.91353999999999 C 64.29797000000002 55.95893999999999 73.90577000000002 53.10813999999999 76.76977000000002 59.04377999999999" stroke-linecap="round" />
</g>
		<g transform="matrix(3.78 0 0 3.78 -28.38 -44.74)" id="uoEfM0cmxxgpcRm5D8aq7"  >
<path style="stroke: none; stroke-width: 1; stroke-dasharray: none; stroke-linecap: butt; stroke-dashoffset: 0; stroke-linejoin: miter; stroke-miterlimit: 4; fill: rgb(0,0,0); fill-rule: nonzero; opacity: 1;" vector-effect="non-scaling-stroke"  transform=" translate(-82.02, -67.77)" d="M 101.21 62.339 L 102.8205 61.227399999999996 L 103.41798999999999 60.74505 L 103.61158999999999 63.62525 L 102.68436999999999 64.48452 L 101.29676999999998 65.92952 C 100.85144999999999 69.85271999999999 98.93586999999998 74.07552 93.25026999999999 74.89301999999999 C 89.88936999999999 75.57547 82.41126999999999 72.41332 83.19626999999998 65.10672 C 83.19626999999998 65.10672 82.14876999999998 63.37242 79.82506999999998 65.23796 C 80.31350999999998 66.37796 79.03418999999998 75.85496 70.37466999999998 75.21376000000001 C 67.65456999999998 74.97739000000001 63.71436999999998 74.11146000000001 61.76746999999998 66.54606000000001 L 60.59786999999998 65.44126000000001 L 60.46796999999998 62.37166000000001 L 60.42176999999998 61.352460000000015 L 60.46216999999998 61.370770000000014 L 61.65286999999998 62.567070000000015 C 61.65286999999998 62.567070000000015 72.50186999999998 56.860070000000015 78.98086999999998 63.562350000000016 C 78.98086999999998 63.562350000000016 81.36186999999998 61.19405000000002 84.03956999999998 63.45938000000002 C 84.03956999999998 63.45938000000002 91.08126999999999 57.37298000000002 101.20956999999999 62.33908000000002" stroke-linecap="round" />
</g>
		<g transform="matrix(3.78 0 0 3.78 -2.84 197.09)" id="JuVqILe9XJp_KFO3BjbHR"  >
<path style="stroke: rgb(0,0,0); stroke-width: 0.3; stroke-dasharray: none; stroke-linecap: butt; stroke-dashoffset: 0; stroke-linejoin: miter; stroke-miterlimit: 4; fill: rgb(0,0,0); fill-rule: nonzero; opacity: 1;" vector-effect="non-scaling-stroke"  transform=" translate(-88.77, -131.76)" d="M 23.725 143.44 C 60.284 123.227 103.739 113.424 153.825 125.05799999999999 C 105.24399999999999 118.75699999999999 61.359999999999985 123.65209999999999 23.724999999999994 143.44 z" stroke-linecap="round" />
</g>
		<g transform="matrix(3.78 0 0 3.78 -64.23 237.49)" id="kn4kTgp1E6WC7bMgGiBl0"  >
<path style="stroke: none; stroke-width: 1; stroke-dasharray: none; stroke-linecap: butt; stroke-dashoffset: 0; stroke-linejoin: miter; stroke-miterlimit: 4; fill: rgb(110,102,154); fill-rule: nonzero; opacity: 1;" vector-effect="non-scaling-stroke"  transform=" translate(-72.53, -142.45)" d="M 75.455 145.29 L 75.455 143.6276 L 69.61019999999999 143.6276 L 69.61019999999999 145.1647 C 69.61019999999999 145.2483 69.65169999999999 145.28998 69.73528999999999 145.28998 z M 75.32991 137.2645 C 76.00919 137.2645 76.59000999999999 137.50568 77.07251 137.98823 C 77.55525 138.47097 77.79642 139.05202999999997 77.79642 139.73122999999998 L 77.79642 147.63152999999997 L 69.73522 147.63152999999997 C 69.05593999999999 147.63152999999997 68.47492 147.39033999999998 67.99242 146.90760999999998 C 67.50986999999999 146.42505999999997 67.26849999999999 145.84400999999997 67.26849999999999 145.16481 L 67.26849999999999 141.26820999999998 L 75.45499999999998 141.26820999999998 L 75.45499999999998 139.73130999999998 C 75.45499999999998 139.64790999999997 75.41309999999999 139.60601999999997 75.32990999999998 139.60601999999997 L 67.26850999999998 139.60601999999997 L 67.26850999999998 137.26451999999998 z" stroke-linecap="round" />
</g>
		<g transform="matrix(3.78 0 0 3.78 -4.67 237.52)" id="AlQds6finw0UYG-sg22ND"  >
<path style="stroke: none; stroke-width: 1; stroke-dasharray: none; stroke-linecap: butt; stroke-dashoffset: 0; stroke-linejoin: miter; stroke-miterlimit: 4; fill: rgb(110,102,154); fill-rule: nonzero; opacity: 1;" vector-effect="non-scaling-stroke"  transform=" translate(-88.29, -142.45)" d="M 94.67 137.27 L 97.1546 137.27 L 93.258 147.637 L 91.43469999999999 147.637 L 88.3069 140.7016 L 85.304 147.637 L 83.4987 147.637 L 79.4234 137.27 L 81.908 137.27 L 84.4102 143.383 L 87.07350000000001 137.27 L 89.5044 137.27 L 92.32860000000001 143.4186 z" stroke-linecap="round" />
</g>
		<g transform="matrix(3.78 0 0 3.78 54.49 237.5)" id="Ra6jyiBJBZKDgOXSbHA_5"  >
<path style="stroke: none; stroke-width: 1; stroke-dasharray: none; stroke-linecap: butt; stroke-dashoffset: 0; stroke-linejoin: miter; stroke-miterlimit: 4; fill: rgb(110,102,154); fill-rule: nonzero; opacity: 1;" vector-effect="non-scaling-stroke"  transform=" translate(-103.94, -142.45)" d="M 101.02 141.27 L 106.8648 141.27 L 106.8648 139.7329 C 106.8648 139.6497 106.8231 139.60781 106.73972 139.60781 L 101.14512 139.60781 C 101.06152 139.60781 101.02003 139.64971 101.02003 139.7329 z M 106.7397 137.2663 C 107.41897 137.2663 107.9998 137.50747 108.4825 137.99002 C 108.96504 138.47276 109.20642000000001 139.05381999999997 109.20642000000001 139.73281999999998 L 109.20642000000001 143.62941999999998 L 101.01992000000001 143.62941999999998 L 101.01992000000001 145.16652 C 101.01992000000001 145.25011999999998 101.06142000000001 145.29181 101.14501000000001 145.29181 L 109.20641000000002 145.29181 L 109.20641000000002 147.63331 L 101.14501000000001 147.63331 C 100.46572000000002 147.63331 99.88491000000002 147.39194 99.40221000000001 146.9094 C 98.91967000000001 146.42685 98.67849000000001 145.8458 98.67849000000001 145.16660000000002 L 98.67849000000001 139.73290000000003 C 98.67849000000001 139.05381000000003 98.91967000000001 138.47280000000003 99.40221000000001 137.99010000000004 C 99.88496 137.50755000000004 100.46581 137.26638000000005 101.14501000000001 137.26638000000005 z" stroke-linecap="round" />
</g>
		<g transform="matrix(3.78 0 0 3.78 103.03 237.53)" id="dyg02XenC0L3RJrpatZhD"  >
<path style="stroke: none; stroke-width: 1; stroke-dasharray: none; stroke-linecap: butt; stroke-dashoffset: 0; stroke-linejoin: miter; stroke-miterlimit: 4; fill: rgb(110,102,154); fill-rule: nonzero; opacity: 1;" vector-effect="non-scaling-stroke"  transform=" translate(-116.79, -142.46)" d="M 122.05 139.74 L 122.05 140.18672 L 119.7085 140.18672 L 119.7085 139.74 C 119.7085 139.6566 119.6666 139.61471 119.58322 139.61471 L 113.98862 139.61471 C 113.90522 139.61471 113.86354 139.65661 113.86354 139.74 L 113.86354 141.1698 C 113.86354 141.2413 113.90524 141.27708 113.98862 141.27708 L 119.58322 141.27708 C 120.27425 141.27708 120.85822 141.51845 121.33502 142.001 C 121.8113 142.48374 122.04993 143.0644 122.04993 143.74360000000001 L 122.04993 145.17360000000002 C 122.04993 145.85289000000003 121.8113 146.43370000000002 121.33502 146.91620000000003 C 120.85815 147.39894000000004 120.27422 147.64012000000002 119.58322 147.64012000000002 L 113.98862 147.64012000000002 C 113.30954 147.64012000000002 112.72852 147.39894 112.24582 146.91620000000003 C 111.76326999999999 146.43365000000003 111.5221 145.85280000000003 111.5221 145.17360000000002 L 111.5221 144.72687000000002 L 113.86359999999999 144.72687000000002 L 113.86359999999999 145.17360000000002 C 113.86359999999999 145.2572 113.9053 145.29869000000002 113.98867999999999 145.29869000000002 L 119.58327999999999 145.29869000000002 C 119.66667999999999 145.29869000000002 119.70855999999999 145.25719 119.70855999999999 145.17360000000002 L 119.70855999999999 143.74360000000001 C 119.70855999999999 143.67210000000003 119.66666 143.63632 119.58327999999999 143.63632 L 113.98867999999999 143.63632 C 113.30959999999999 143.63632 112.72858 143.39515 112.24587999999999 142.91260000000003 C 111.76332999999998 142.42986000000002 111.52215999999999 141.84880000000004 111.52215999999999 141.16980000000004 L 111.52215999999999 139.74000000000004 C 111.52215999999999 139.06071000000003 111.76332999999998 138.47990000000004 112.24587999999999 137.99720000000005 C 112.72861999999999 137.51465000000005 113.30967999999999 137.27328000000006 113.98867999999999 137.27328000000006 L 119.58327999999999 137.27328000000006 C 120.27430999999999 137.27328000000006 120.85828 137.51465000000005 121.33507999999999 137.99720000000005 C 121.81136 138.47993000000005 122.04999 139.06080000000006 122.04999 139.74000000000004" stroke-linecap="round" />
</g>
		<g transform="matrix(3.78 0 0 3.78 151.55 237.51)" id="bJAzMavU_RnIkPZWa3mIH"  >
<path style="stroke: none; stroke-width: 1; stroke-dasharray: none; stroke-linecap: butt; stroke-dashoffset: 0; stroke-linejoin: miter; stroke-miterlimit: 4; fill: rgb(110,102,154); fill-rule: nonzero; opacity: 1;" vector-effect="non-scaling-stroke"  transform=" translate(-129.62, -142.45)" d="M 132.42 139.61 L 126.82539999999999 139.61 C 126.74179999999998 139.61 126.70030999999999 139.6519 126.70030999999999 139.73528000000002 L 126.70030999999999 145.16878000000003 C 126.70030999999999 145.25238000000002 126.74180999999999 145.29407000000003 126.82539999999999 145.29407000000003 L 132.42 145.29407000000003 C 132.5032 145.29407000000003 132.5451 145.25237000000004 132.5451 145.16878000000003 L 132.5451 139.73528000000002 C 132.5451 139.65188 132.5032 139.61 132.42 139.61 M 126.82539999999999 137.26850000000002 L 132.42 137.26850000000002 C 133.09929 137.26850000000002 133.68009999999998 137.50967000000003 134.1627 137.99222 C 134.64544 138.47496 134.8868 139.05602 134.8868 139.73522 L 134.8868 145.16872 C 134.8868 145.84801000000002 134.64544 146.42902 134.1627 146.91152 C 133.68014 147.39426 133.0993 147.63542999999999 132.42 147.63542999999999 L 126.82539999999999 147.63542999999999 C 126.14611999999998 147.63542999999999 125.56509999999999 147.39425999999997 125.08259999999999 146.91152 C 124.60004999999998 146.42897 124.35867999999998 145.84792 124.35867999999998 145.16872 L 124.35867999999998 139.73522 C 124.35867999999998 139.05594 124.60004999999998 138.47492 125.08259999999999 137.99222 C 125.56513999999999 137.50967 126.14619999999998 137.26850000000002 126.82539999999999 137.26850000000002" stroke-linecap="round" />
</g>
		<g transform="matrix(3.78 0 0 3.78 210.94 237.52)" id="fFqgVpfuAc7BE7lMW_8lN"  >
<path style="stroke: none; stroke-width: 1; stroke-dasharray: none; stroke-linecap: butt; stroke-dashoffset: 0; stroke-linejoin: miter; stroke-miterlimit: 4; fill: rgb(110,102,154); fill-rule: nonzero; opacity: 1;" vector-effect="non-scaling-stroke"  transform=" translate(-145.34, -142.45)" d="M 150.53 137.27 C 151.20928 137.27 151.7901 137.51118000000002 152.2726 137.99373 C 152.75515000000001 138.47647 152.99652 139.05752999999999 152.99652 139.73673 L 152.99652 147.63702999999998 L 150.67282 147.63702999999998 L 150.67282 139.73673 C 150.67282 139.65332999999998 150.62502 139.61144 150.52991 139.61144 L 146.63331 139.61144 C 146.56171 139.61144 146.52604 139.65334 146.52604 139.73673 L 146.52604 147.63702999999998 L 144.16654 147.63702999999998 L 144.16654 139.73673 C 144.16654 139.65332999999998 144.13094 139.61144 144.05927 139.61144 L 140.14487 139.61144 C 140.06127 139.61144 140.01978 139.65334 140.01978 139.73673 L 140.01978 147.63702999999998 L 137.67828 147.63702999999998 L 137.67828 137.27003 z" stroke-linecap="round" />
</g>
		<g transform="matrix(3.78 0 0 3.78 268.48 237.5)" id="cEw-Qq6alsou3ZROyZXsT"  >
<path style="stroke: none; stroke-width: 1; stroke-dasharray: none; stroke-linecap: butt; stroke-dashoffset: 0; stroke-linejoin: miter; stroke-miterlimit: 4; fill: rgb(110,102,154); fill-rule: nonzero; opacity: 1;" vector-effect="non-scaling-stroke"  transform=" translate(-160.56, -142.45)" d="M 157.64 141.27 L 163.48479999999998 141.27 L 163.48479999999998 139.7329 C 163.48479999999998 139.6497 163.4432 139.60781 163.35970999999998 139.60781 L 157.76511 139.60781 C 157.68151 139.60781 157.64002 139.64971 157.64002 139.7329 z M 163.35969999999998 137.2663 C 164.03898999999998 137.2663 164.61979999999997 137.50747 165.10249999999996 137.99002 C 165.58504999999997 138.47276 165.82621999999995 139.05381999999997 165.82621999999995 139.73281999999998 L 165.82621999999995 143.62941999999998 L 157.63991999999996 143.62941999999998 L 157.63991999999996 145.16652 C 157.63991999999996 145.25011999999998 157.68141999999997 145.29181 157.76500999999996 145.29181 L 165.82620999999995 145.29181 L 165.82620999999995 147.63331 L 157.76500999999996 147.63331 C 157.08572999999996 147.63331 156.50490999999997 147.39194 156.02220999999997 146.9094 C 155.53965999999997 146.42685 155.29828999999998 145.8458 155.29828999999998 145.16660000000002 L 155.29828999999998 139.73290000000003 C 155.29828999999998 139.05381000000003 155.53965999999997 138.47280000000003 156.02220999999997 137.99010000000004 C 156.50494999999998 137.50755000000004 157.08580999999998 137.26638000000005 157.76500999999996 137.26638000000005 z" stroke-linecap="round" />
</g>
		</g>
</g>
</svg>
