<?xml version="1.0" encoding="UTF-8" standalone="no"?>
<svg
   xmlns:dc="http://purl.org/dc/elements/1.1/"
   xmlns:cc="http://creativecommons.org/ns#"
   xmlns:rdf="http://www.w3.org/1999/02/22-rdf-syntax-ns#"
   xmlns:svg="http://www.w3.org/2000/svg"
   xmlns="http://www.w3.org/2000/svg"
   xmlns:sodipodi="http://sodipodi.sourceforge.net/DTD/sodipodi-0.dtd"
   xmlns:inkscape="http://www.inkscape.org/namespaces/inkscape"
   id="svg_root"
   viewBox="0 0 306 306"
   version="1.1"
   sodipodi:docname="logo_ada_awesome.svg"
   inkscape:version="0.92.5 (2060ec1f9f, 2020-04-08)"
   width="306"
   height="306">
  <metadata
     id="metadata17">
    <rdf:RDF>
      <cc:Work
         rdf:about="">
        <dc:format>image/svg+xml</dc:format>
        <dc:type
           rdf:resource="http://purl.org/dc/dcmitype/StillImage" />
        <dc:title></dc:title>
      </cc:Work>
    </rdf:RDF>
  </metadata>
  <defs
     id="defs15" />
  <sodipodi:namedview
     pagecolor="#ffffff"
     bordercolor="#666666"
     borderopacity="1"
     objecttolerance="10"
     gridtolerance="10"
     guidetolerance="10"
     inkscape:pageopacity="0"
     inkscape:pageshadow="2"
     inkscape:window-width="1848"
     inkscape:window-height="1016"
     id="namedview13"
     showgrid="false"
     inkscape:showpageshadow="false"
     inkscape:pagecheckerboard="true"
     inkscape:zoom="1.5733334"
     inkscape:cx="200.38818"
     inkscape:cy="87.989237"
     inkscape:window-x="72"
     inkscape:window-y="27"
     inkscape:window-maximized="1"
     inkscape:current-layer="layer2"
     fit-margin-top="0"
     fit-margin-left="0"
     fit-margin-right="0"
     fit-margin-bottom="0" />
  <rect
     id="svg_frame"
     width="300"
     height="300"
     style="fill:none;stroke:none;stroke-width:10"
     x="2.3644104"
     y="3.0000153" />
  <!-- <circle id="svg_circle_frame" cx="150" cy="150" r="148" style="fill:none;stroke-width:5" stroke="black"/> -->
  <g
     inkscape:groupmode="layer"
     id="layer2"
     inkscape:label="circle"
     style="display:inline">
    <g
       id="g937"
       style="fill:#cdbd8e;fill-opacity:0.98095236;stroke:#000000;stroke-width:6;stroke-miterlimit:4;stroke-dasharray:none;stroke-opacity:1">
      <circle
         r="150"
         cy="153"
         cx="153"
         id="path824"
         style="fill:#cdbd8e;fill-opacity:0.98095236;stroke:#000000;stroke-width:6;stroke-linecap:round;stroke-linejoin:bevel;stroke-miterlimit:4;stroke-dasharray:none;stroke-dashoffset:0;stroke-opacity:1;paint-order:normal" />
    </g>
  </g>
  <g
     inkscape:groupmode="layer"
     id="layer3"
     inkscape:label="ada"
     style="display:inline">
    <g
       style="fill:#000000;fill-opacity:1"
       id="g7"
       transform="translate(11.712707,38.428582)">
      <g
         transform="matrix(0.12666666,0,0,-0.12666666,0,199.99999)"
         id="g4"
         style="fill:#000000;fill-opacity:1">
        <path
           id="svg_logo"
           style="fill:#000000;fill-opacity:1;fill-rule:nonzero;stroke:none;stroke-width:0.79207551"
           d="m 1740.4465,614.29865 c 0,38.52101 40.5464,52.70391 106.4549,59.80488 54.7324,6.07997 98.3282,15.20706 126.7162,33.45329 v -48.65718 c 0,-58.07498 -48.8947,-86.32436 -114.1697,-92.77501 -26.6296,2.47523 -54.4949,4.79601 -83.4294,6.91482 -22.5107,8.5861 -35.572,23.17453 -35.572,41.2592 z M 478.27815,597.06468 h 280.82481 l 23.04149,-68.14621 C 661.27531,506.92015 540.94795,477.94444 424.86534,441.41947 Z M 618.19035,1010.6802 716.5194,721.75162 H 519.84627 Z M 1242.6745,865.70896 c 74.0116,0 133.8212,-66.91533 133.8212,-150.03653 0,-58.78387 -31.485,-109.41809 -76.9502,-132.93243 -34.2413,-1.14534 -68.9263,-2.72317 -103.9519,-4.76514 -50.685,20.4823 -86.7322,73.22027 -86.7322,137.69757 0,85.15367 59.8095,150.03653 133.8131,150.03653 z m 855.7742,-330.03013 c -0.071,1.91841 -0.1425,3.82176 -0.1425,5.61582 v 271.70089 c 0,41.55862 -16.2139,178.42135 -228.094,178.42135 -136.8627,0 -232.1652,-74.00679 -245.3454,-173.35682 h 133.829 c 12.1664,44.61049 66.9147,65.89753 114.5659,65.89753 59.8018,0 95.2787,-22.30801 95.2787,-49.67503 0,-42.57406 -61.8374,-52.72292 -149.0211,-60.82902 -115.5638,-10.13301 -213.9079,-40.54792 -213.9079,-158.14895 0,-11.67995 1.1722,-22.67951 3.2238,-33.13728 -32.0394,1.1604 -64.9185,2.01109 -98.5262,2.50613 V 1210.3941 H 1376.4957 V 928.55777 c -40.5464,38.52656 -93.2748,60.8314 -154.0983,60.8314 -135.8488,0 -248.37898,-117.59153 -248.37898,-272.71159 0,-57.77794 15.8732,-110.4074 42.82748,-153.6468 -33.56018,-3.68236 -67.26305,-7.88987 -101.03713,-12.6241 L 703.33848,1159.7012 H 534.03868 L 264.03678,384.75201 C 185.17933,353.74938 109.32851,318.81727 37.840604,279.76795 383.94987,430.77556 1237.4389,635.19916 2203.4541,509.96806 c -4.6097,5.11997 -42.0671,14.88231 -105.0054,25.71077"
           inkscape:connector-curvature="0" />
      </g>
    </g>
  </g>
  <g
     inkscape:groupmode="layer"
     id="layer4"
     inkscape:label="awesome"
     style="display:inline">
    <g
       transform="matrix(1.3113777,0,0,1.3113777,14.119228,49.609943)"
       id="g1722">
      <path
         inkscape:connector-curvature="0"
         id="path1392"
         style="display:inline;fill:#6e669a;fill-opacity:1;fill-rule:nonzero;stroke:none;stroke-width:5;stroke-miterlimit:4;stroke-dasharray:none;enable-background:new"
         d="m 77.109656,124.54291 v -2.14726 h -7.549548 v 1.98544 c 0,0.10797 0.05361,0.16182 0.161575,0.16182 z M 76.94808,114.17654 c 0.877414,0 1.627641,0.31152 2.250933,0.93481 0.623545,0.62355 0.935065,1.37403 0.935065,2.25144 v 10.20455 H 69.721683 c -0.877413,0 -1.627893,-0.31153 -2.251185,-0.93507 -0.623292,-0.62329 -0.935065,-1.37377 -0.935065,-2.25118 v -5.03312 h 10.574223 v -1.98518 c 0,-0.10772 -0.05411,-0.16183 -0.161576,-0.16183 H 66.535433 v -3.02442 z" />
      <path
         inkscape:connector-curvature="0"
         id="path1396"
         style="display:inline;fill:#6e669a;fill-opacity:1;fill-rule:nonzero;stroke:none;stroke-width:5;stroke-miterlimit:4;stroke-dasharray:none;enable-background:new"
         d="m 101.92878,114.17654 h 3.20925 l -5.03311,13.3908 h -2.355112 l -4.040145,-8.95822 -3.878827,8.95822 h -2.331847 l -5.263975,-13.3908 h 3.209261 l 3.232016,7.89596 3.440118,-7.89596 h 3.139979 l 3.647964,7.94198 z" />
      <path
         inkscape:connector-curvature="0"
         id="path1400"
         style="display:inline;fill:#6e669a;fill-opacity:1;fill-rule:nonzero;stroke:none;stroke-width:5;stroke-miterlimit:4;stroke-dasharray:none;enable-background:new"
         d="m 110.125,119.348 h 7.54955 v -1.98544 c 0,-0.10746 -0.0538,-0.16158 -0.16157,-0.16158 h -7.2264 c -0.10797,0 -0.16158,0.0541 -0.16158,0.16158 z m 7.38798,-5.17143 c 0.87741,0 1.62764,0.31152 2.25119,0.93481 0.62328,0.62354 0.93506,1.37402 0.93506,2.25118 v 5.03312 H 110.125 v 1.98543 c 0,0.10797 0.0536,0.16183 0.16158,0.16183 h 10.41265 v 3.02442 h -10.41265 c -0.87741,0 -1.62764,-0.31177 -2.25118,-0.93506 -0.6233,-0.6233 -0.93481,-1.37377 -0.93481,-2.25119 v -7.01855 c 0,-0.87716 0.31151,-1.62764 0.93481,-2.25118 0.62354,-0.62329 1.37377,-0.93481 2.25118,-0.93481 z" />
      <path
         inkscape:connector-curvature="0"
         id="path1404"
         style="display:inline;fill:#6e669a;fill-opacity:1;fill-rule:nonzero;stroke:none;stroke-width:5;stroke-miterlimit:4;stroke-dasharray:none;enable-background:new"
         d="m 137.29924,117.36266 v 0.57702 h -3.02443 v -0.57702 c 0,-0.10771 -0.0541,-0.16183 -0.16182,-0.16183 h -7.2264 c -0.10772,0 -0.16157,0.0541 -0.16157,0.16183 v 1.84687 c 0,0.0923 0.0538,0.13857 0.16157,0.13857 h 7.2264 c 0.89258,0 1.64685,0.31177 2.26281,0.93506 0.6152,0.62354 0.92344,1.37352 0.92344,2.25093 v 1.84712 c 0,0.87742 -0.30824,1.62764 -0.92344,2.25094 -0.61596,0.62354 -1.37023,0.93506 -2.26281,0.93506 h -7.2264 c -0.87716,0 -1.62764,-0.31152 -2.25119,-0.93506 -0.62329,-0.6233 -0.93481,-1.37352 -0.93481,-2.25094 v -0.57702 h 3.02443 v 0.57702 c 0,0.10797 0.0538,0.16158 0.16157,0.16158 h 7.2264 c 0.10771,0 0.16182,-0.0536 0.16182,-0.16158 v -1.84712 c 0,-0.0923 -0.0541,-0.13856 -0.16182,-0.13856 h -7.2264 c -0.87716,0 -1.62764,-0.31152 -2.25119,-0.93481 -0.62329,-0.62355 -0.93481,-1.37403 -0.93481,-2.25119 v -1.84687 c 0,-0.87741 0.31152,-1.62764 0.93481,-2.25118 0.62355,-0.62329 1.37403,-0.93506 2.25119,-0.93506 h 7.2264 c 0.89258,0 1.64685,0.31177 2.26281,0.93506 0.6152,0.62354 0.92344,1.37377 0.92344,2.25118" />
      <path
         inkscape:connector-curvature="0"
         id="path1408"
         style="display:inline;fill:#6e669a;fill-opacity:1;fill-rule:nonzero;stroke:none;stroke-width:5;stroke-miterlimit:4;stroke-dasharray:none;enable-background:new"
         d="m 150.68977,117.20093 h -7.22639 c -0.10797,0 -0.16158,0.0541 -0.16158,0.16183 v 7.0183 c 0,0.10797 0.0536,0.16183 0.16158,0.16183 h 7.22639 c 0.10747,0 0.16158,-0.0538 0.16158,-0.16183 v -7.0183 c 0,-0.10771 -0.0541,-0.16183 -0.16158,-0.16183 m -7.22639,-3.02441 h 7.22639 c 0.87742,0 1.62764,0.31151 2.25094,0.93481 0.62354,0.62354 0.93531,1.37402 0.93531,2.25143 v 7.0183 c 0,0.87742 -0.31177,1.62789 -0.93531,2.25119 -0.6233,0.62354 -1.37352,0.93506 -2.25094,0.93506 h -7.22639 c -0.87741,0 -1.62789,-0.31152 -2.25118,-0.93506 -0.6233,-0.6233 -0.93507,-1.37377 -0.93507,-2.25119 v -7.0183 c 0,-0.87741 0.31177,-1.62789 0.93507,-2.25143 0.62329,-0.6233 1.37377,-0.93481 2.25118,-0.93481" />
      <path
         inkscape:connector-curvature="0"
         id="path1412"
         style="display:inline;fill:#6e669a;fill-opacity:1;fill-rule:nonzero;stroke:none;stroke-width:5;stroke-miterlimit:4;stroke-dasharray:none;enable-background:new"
         d="m 174.07745,114.17654 c 0.87741,0 1.62764,0.31152 2.25093,0.93481 0.6233,0.62355 0.93507,1.37403 0.93507,2.25144 v 10.20455 h -3.00141 v -10.20455 c 0,-0.10772 -0.0617,-0.16183 -0.18459,-0.16183 h -5.03312 c -0.0925,0 -0.13856,0.0541 -0.13856,0.16183 v 10.20455 h -3.04769 v -10.20455 c 0,-0.10772 -0.046,-0.16183 -0.13856,-0.16183 h -5.05613 c -0.10797,0 -0.16157,0.0541 -0.16157,0.16183 v 10.20455 h -3.02443 v -13.3908 z" />
      <path
         inkscape:connector-curvature="0"
         id="path1416"
         style="display:inline;fill:#6e669a;fill-opacity:1;fill-rule:nonzero;stroke:none;stroke-width:5;stroke-miterlimit:4;stroke-dasharray:none;enable-background:new"
         d="m 183.2667,119.348 h 7.54955 v -1.98544 c 0,-0.10746 -0.0538,-0.16158 -0.16157,-0.16158 h -7.22641 c -0.10796,0 -0.16157,0.0541 -0.16157,0.16158 z m 7.38798,-5.17143 c 0.87741,0 1.62764,0.31152 2.25118,0.93481 0.62329,0.62354 0.93481,1.37402 0.93481,2.25118 v 5.03312 H 183.2667 v 1.98543 c 0,0.10797 0.0536,0.16183 0.16157,0.16183 h 10.4124 v 3.02442 h -10.4124 c -0.87741,0 -1.62763,-0.31177 -2.25118,-0.93506 -0.62329,-0.6233 -0.93506,-1.37377 -0.93506,-2.25119 v -7.01855 c 0,-0.87716 0.31177,-1.62764 0.93506,-2.25118 0.62355,-0.62329 1.37377,-0.93481 2.25118,-0.93481 z" />
    </g>
  </g>
</svg>
